<?xml version="1.0" encoding="utf-8"?>
<!-- Generator: Adobe Illustrator 26.1.0, SVG Export Plug-In . SVG Version: 6.00 Build 0)  -->
<svg version="1.1" id="Capa_1" xmlns="http://www.w3.org/2000/svg" xmlns:xlink="http://www.w3.org/1999/xlink" x="0px" y="0px"
	 viewBox="0 0 215.4 60.5" style="enable-background:new 0 0 215.4 60.5;" xml:space="preserve">
<style type="text/css">
	.st0{fill:#FFFFFF;}
	.st1{fill:#FFFFFF;stroke:#161519;stroke-width:2;stroke-miterlimit:10;}
	.st2{fill:none;stroke:#FFFFFF;stroke-width:9.02;stroke-linecap:round;stroke-miterlimit:10;}
	.st3{fill:none;stroke:#49DA94;stroke-width:9.02;stroke-linecap:round;stroke-miterlimit:10;}
	.st4{fill:#49DA94;}
</style>
<g id="Capa_2_00000084489976278654553670000009403592486770342556_">
	<g id="Capa_1-2">
		<path class="st0" d="M10.4,53.4c0,0.7-0.1,1.4-0.4,2c-0.2,0.6-0.6,1.2-1,1.7c-0.5,0.5-1,0.8-1.6,1.1s-1.3,0.4-2,0.4
			S4,58.5,3.3,58.2c-0.6-0.3-1.2-0.6-1.7-1.1s-0.9-1-1.2-1.6S0,54.2,0,53.5V37.9c0-3.2,0.6-6.4,1.9-9.3c2.5-5.8,7-10.3,12.8-12.8
			c2.9-1.3,6.1-1.9,9.3-1.9h0.1c1.5-0.1,2.9,0.4,4,1.5c0.9,1,1.5,2.3,1.4,3.7c0,0.7-0.2,1.4-0.5,2.1c-0.3,0.6-0.7,1.2-1.2,1.7
			s-1.1,0.8-1.7,1.1c-0.7,0.3-1.4,0.4-2.1,0.4l0,0c-1.8,0-3.6,0.4-5.2,1.1c-1.6,0.7-3.1,1.7-4.3,2.9c-1.2,1.2-2.2,2.7-2.9,4.3
			c-0.7,1.6-1.1,3.4-1.1,5.2L10.4,53.4z"/>
		<path class="st1" d="M123.1,38.3c0,2.8-0.6,5.7-1.8,8.3c-2.2,5.1-6.3,9.2-11.4,11.3c-5.3,2.2-11.3,2.2-16.7,0
			c-2.5-1.1-4.8-2.7-6.8-4.6c-1.9-2-3.5-4.3-4.6-6.8c-2.3-5.3-2.3-11.4,0-16.7c1.1-2.5,2.6-4.9,4.6-6.8s4.3-3.5,6.8-4.6
			c2.6-1.1,5.5-1.7,8.3-1.7c2.1,0,4.2,0.3,6.2,0.9c1.9,0.6,3.8,1.5,5.5,2.6v-14c0-0.7,0.1-1.4,0.4-2c0.2-0.6,0.6-1.1,1-1.6
			s1-0.8,1.5-1.1c1.2-0.5,2.6-0.5,3.9,0c0.6,0.3,1.1,0.6,1.6,1.1c0.4,0.5,0.8,1,1,1.6c0.3,0.6,0.4,1.3,0.4,2L123.1,38.3z
			 M113.4,38.1c0-1.6-0.3-3.1-0.9-4.6c-0.6-1.4-1.5-2.6-2.5-3.7c-1.1-1.1-2.3-1.9-3.7-2.5c-2.9-1.2-6.2-1.2-9.1,0
			c-1.4,0.6-2.6,1.4-3.7,2.5s-1.9,2.3-2.5,3.7s-0.9,3-0.9,4.6s0.3,3.1,0.9,4.5c1.2,2.8,3.4,5.1,6.2,6.3c1.4,0.6,3,0.9,4.6,0.9
			s3.1-0.3,4.5-0.9c1.4-0.6,2.6-1.5,3.7-2.5c1.1-1.1,1.9-2.3,2.5-3.7C113.1,41.2,113.4,39.6,113.4,38.1z"/>
		<path class="st1" d="M140.9,42.5c0.8,2.2,2.2,4.1,4.1,5.4c0.9,0.7,2,1.2,3.1,1.5s2.3,0.5,3.5,0.5c2.7,0.1,5.3-0.7,7.3-2.4
			c0.5-0.4,1.1-0.7,1.8-0.9c0.5-0.2,1.1-0.3,1.6-0.3c0.8,0,1.6,0.2,2.2,0.7c0.7,0.4,1.2,1,1.6,1.7c0.3,0.5,0.5,1,0.6,1.5
			c0.1,0.6,0.2,1.1,0.1,1.7c-0.1,0.6-0.3,1.2-0.5,1.7c-0.3,0.6-0.8,1.1-1.3,1.6c-0.7,0.6-1.5,1.2-2.2,1.7c-0.9,0.6-1.9,1.1-2.9,1.5
			c-1.2,0.4-2.4,0.8-3.7,1c-1.5,0.3-3.1,0.4-4.6,0.4c-2.9,0-5.7-0.6-8.4-1.7c-2.6-1.1-4.9-2.7-6.8-4.6c-2-2-3.5-4.3-4.6-6.8
			c-2.3-5.3-2.3-11.4,0-16.7c1.1-2.5,2.7-4.9,4.6-6.8c2-1.9,4.3-3.5,6.8-4.6c5.3-2.2,11.3-2.2,16.7,0c2.5,1.1,4.9,2.6,6.8,4.5
			c2,1.9,3.6,4.2,4.7,6.7c1.2,2.6,1.8,5.4,1.8,8.3c0.1,1.3-0.4,2.5-1.3,3.3c-0.9,0.9-2.2,1.3-3.5,1.3L140.9,42.5z M163.1,34.3
			c-0.3-1.2-0.8-2.3-1.6-3.3c-0.7-1-1.6-1.8-2.6-2.5s-2.1-1.2-3.3-1.6c-1.3-0.4-2.6-0.5-3.9-0.5c-1.3,0-2.6,0.2-3.9,0.6
			c-1.2,0.4-2.3,0.9-3.3,1.6s-1.8,1.6-2.5,2.5c-0.7,1-1.2,2.1-1.5,3.3h22.6V34.3z"/>
		<path class="st1" d="M194.5,43.4l10.6-23.3c0.4-0.9,1-1.6,1.8-2.2c1.4-0.9,3.1-1,4.6-0.3c0.6,0.3,1.2,0.6,1.6,1.1
			c0.4,0.5,0.8,1,1,1.6s0.3,1.2,0.3,1.9c0,0.7-0.2,1.3-0.4,1.9L199,56c-0.4,0.9-1.1,1.7-1.9,2.2c-0.7,0.4-1.5,0.7-2.3,0.8
			c-1,0-2-0.3-2.9-0.8c-0.8-0.5-1.4-1.3-1.8-2.1l-15-32c-0.3-0.6-0.4-1.3-0.4-1.9c0-1.3,0.5-2.5,1.3-3.5c0.4-0.5,1-0.9,1.6-1.1
			c0.3-0.1,0.7-0.3,1-0.3c0.3-0.1,0.7-0.1,1-0.1c0.9,0,1.9,0.3,2.6,0.8c0.8,0.5,1.4,1.3,1.8,2.2L194.5,43.4z"/>
		<line class="st2" x1="53.8" y1="18.5" x2="25.4" y2="36.3"/>
		<line class="st3" x1="53.8" y1="54.1" x2="25.4" y2="36.3"/>
		<circle class="st4" cx="67.6" cy="54.2" r="4.4"/>
	</g>
</g>
</svg>
