<svg xmlns="http://www.w3.org/2000/svg" viewBox="0 0 215.44 60.54"><defs><style>.cls-1{isolation:isolate;}.cls-2,.cls-3{fill:#161519;}.cls-3{stroke:#fff;stroke-width:2px;}.cls-3,.cls-4,.cls-5{stroke-miterlimit:10;}.cls-4,.cls-5{fill:none;stroke-linecap:round;stroke-width:9.02px;}.cls-4{stroke:#400092;}.cls-5{stroke:#49da94;mix-blend-mode:multiply;}.cls-6{fill:#49da94;}</style></defs><g class="cls-1"><g id="Capa_2" data-name="Capa 2"><g id="Capa_1-2" data-name="Capa 1"><path class="cls-2" d="M10.42,53.43a5.34,5.34,0,0,1-.39,2A4.47,4.47,0,0,1,9,57.08a5.42,5.42,0,0,1-1.61,1.08,4.75,4.75,0,0,1-2,.41,5.41,5.41,0,0,1-2.09-.41,5.54,5.54,0,0,1-1.71-1.08A5.06,5.06,0,0,1,.43,55.45a4.86,4.86,0,0,1-.43-2V37.93a23.09,23.09,0,0,1,1.9-9.32A24.29,24.29,0,0,1,14.69,15.82,23.07,23.07,0,0,1,24,13.93h.1a5.31,5.31,0,0,1,4,1.46,5.16,5.16,0,0,1,1.41,3.72A4.91,4.91,0,0,1,29,21.17a5.2,5.2,0,0,1-1.17,1.66,5.86,5.86,0,0,1-1.73,1.1,5.27,5.27,0,0,1-2.09.41H24a13.05,13.05,0,0,0-5.21,1.06,13.38,13.38,0,0,0-4.29,2.88,14.23,14.23,0,0,0-2.93,4.27,12.52,12.52,0,0,0-1.1,5.23Z"/><path class="cls-3" d="M123.13,38.26a20.88,20.88,0,0,1-1.75,8.26A21.62,21.62,0,0,1,110,57.86a21.47,21.47,0,0,1-16.65,0,21.6,21.6,0,0,1-6.79-4.61,22,22,0,0,1-4.59-6.84,21.47,21.47,0,0,1,0-16.7,21.56,21.56,0,0,1,4.59-6.82,21.88,21.88,0,0,1,6.79-4.59,20.87,20.87,0,0,1,8.35-1.68,20.48,20.48,0,0,1,6.19.92,22.55,22.55,0,0,1,5.51,2.58v-14a5.5,5.5,0,0,1,.36-2,5.21,5.21,0,0,1,1-1.62,4.83,4.83,0,0,1,1.53-1.08,5.17,5.17,0,0,1,3.89,0,4.74,4.74,0,0,1,1.56,1.08,5.45,5.45,0,0,1,1,1.62,5.12,5.12,0,0,1,.38,2Zm-9.76-.18a11.52,11.52,0,0,0-.92-4.57,11.83,11.83,0,0,0-2.52-3.71,12.35,12.35,0,0,0-3.72-2.5,11.69,11.69,0,0,0-9.09,0,12.31,12.31,0,0,0-3.71,2.5,11.45,11.45,0,0,0-2.5,3.71,11.68,11.68,0,0,0-.9,4.57,11.51,11.51,0,0,0,.9,4.52,11.62,11.62,0,0,0,6.19,6.26,11.52,11.52,0,0,0,4.57.92,11.3,11.3,0,0,0,4.54-.92,12.23,12.23,0,0,0,3.72-2.52,12.08,12.08,0,0,0,2.52-3.74A11.35,11.35,0,0,0,113.37,38.08Z"/><path class="cls-3" d="M140.91,42.45A11,11,0,0,0,145,47.82a11.14,11.14,0,0,0,3.06,1.49,11.92,11.92,0,0,0,3.51.52,10.44,10.44,0,0,0,7.29-2.43,7.33,7.33,0,0,1,1.76-.93,5.14,5.14,0,0,1,1.62-.29,4,4,0,0,1,2.25.65,5.34,5.34,0,0,1,1.62,1.69,5.16,5.16,0,0,1,.65,1.55,4.38,4.38,0,0,1,.09,1.69,5,5,0,0,1-.54,1.69A4.85,4.85,0,0,1,165,55a19,19,0,0,1-2.25,1.73,15.4,15.4,0,0,1-2.9,1.46,21,21,0,0,1-3.69,1,25,25,0,0,1-4.62.38,21,21,0,0,1-8.37-1.68,21.82,21.82,0,0,1-6.84-4.61,22.31,22.31,0,0,1-4.63-6.82,21.29,21.29,0,0,1,0-16.72,21.84,21.84,0,0,1,4.63-6.82,22.11,22.11,0,0,1,6.84-4.59,21.66,21.66,0,0,1,16.68,0,22.57,22.57,0,0,1,6.84,4.52,21.74,21.74,0,0,1,4.68,6.73,20.63,20.63,0,0,1,1.77,8.28,4.45,4.45,0,0,1-1.32,3.35,4.81,4.81,0,0,1-3.49,1.29Zm22.23-8.11A10.48,10.48,0,0,0,161.59,31,10.66,10.66,0,0,0,159,28.5a11.36,11.36,0,0,0-3.33-1.58,13.84,13.84,0,0,0-3.91-.54,13.25,13.25,0,0,0-3.89.56,11.47,11.47,0,0,0-3.29,1.62,11.07,11.07,0,0,0-2.5,2.52,10.49,10.49,0,0,0-1.53,3.26Z"/><path class="cls-3" d="M194.5,43.39l10.58-23.27a5.13,5.13,0,0,1,1.82-2.18,4.72,4.72,0,0,1,4.61-.33,4.49,4.49,0,0,1,1.6,1.12,4.86,4.86,0,0,1,1,1.6,5,5,0,0,1,.34,1.87,4.43,4.43,0,0,1-.45,1.93L199,56a4.86,4.86,0,0,1-1.95,2.18,5.69,5.69,0,0,1-2.32.78,4.89,4.89,0,0,1-2.9-.83A5.38,5.38,0,0,1,190,56l-15-32a4.4,4.4,0,0,1-.45-1.93,5,5,0,0,1,1.33-3.46,4.7,4.7,0,0,1,1.55-1.13,5.53,5.53,0,0,1,1-.34,4.77,4.77,0,0,1,1-.11,4.68,4.68,0,0,1,2.64.79,5,5,0,0,1,1.82,2.18Z"/><line class="cls-4" x1="52.8" y1="18.53" x2="24.39" y2="36.31"/><line class="cls-5" x1="52.8" y1="54.08" x2="24.4" y2="36.31"/><circle class="cls-6" cx="67.57" cy="54.19" r="4.39"/></g></g></g></svg>